<svg width="711" height="443" viewBox="0 0 711 443" fill="none" xmlns="http://www.w3.org/2000/svg">
<path d="M399 74V75.5V78V82V84V88V94V103V111V112V116V122V126V134V135V199V327H395H330H253H80L80.25 328.5L80.611 330.056L80.917 332L81.083 334L81.389 336L81.639 337L82.139 339L82.389 340L83.028 342L83.389 343L84.25 345L84.778 346L85.25 347L85.833 348L86.389 349L87.694 351L88.417 352L89.222 353L90.083 354L92 356L93 357L95 358.972L96 359.917L98 361.528L100 362.75L101 363.222L102 363.778L103 364.222L104 364.778L105 365.222L106 365.75L108 366.611L109 366.972L111 367.611L112 367.861L114 368.361L115 368.611L117 368.944L118 369.056L120 369.389L121 369.611L123 369.917L124 369.972L126 370H127H130H143H172H409H419H442V250V248V243V115H453H458H466H474H476L478 115.028L479 115.083L481 115.389L483 115.778L484 115.917L486 116.083L488 116.389L489 116.639L490 116.861L491 117.139L493 117.611L494 117.806L496 118.194L497 118.389L499 118.861L500 119.139L501 119.389L503 120L504 120.333L506 121L508 121.667L509 122.028L510 122.389L512 123.25L513 123.75L515 124.611L517 125.389L519 126.25L520 126.778L521 127.25L522 127.833L523 128.389L525 129.611L527 130.806L528 131.389L530 132.694L531 133.417L532 134.194L534 135.806L535 136.611L536 137.389L538 139.083L539 140.028L541 142L542 143L544 145L546 147L547 148L548 149L549.917 151L550.778 152L552.361 154L553.139 155L553.861 156L555.361 158L556.139 159L556.833 160L557.556 161L558.167 162L559.389 164L560.611 166L561.167 167L561.75 168L562.222 169L563.222 171L563.75 172L564.167 173L564.611 174L565.389 176L566.194 178L566.611 179L567.333 181L567.667 182L568.333 184L569 186L569.306 187L569.583 188L569.806 189L570.194 191L570.611 193L571 195L571.389 197L571.611 198L571.917 200L571.972 201L572 203V204V207V212V220V239V259L573.5 258.75L575.056 258.389L577 258.083L578 258.028L579 258H581H587H588H592H597H602H613H626H629H633H635H636L638 258.083L640 258.389L641 258.639L642 258.861L644 259.389L645 259.694L647 260.333L648 260.667L650 261.417L651 261.889L652 262.417L653 263.028L655 264.389L656 265.139L657.917 266.611L659.583 268L661 269.417L661.694 270.222L663.139 272.028L663.833 273L665.139 275L665.75 276L666.222 277L666.75 278L667.611 280L668.306 282L668.583 283L668.806 284L669.194 286L669.389 287L669.611 288L669.917 290L669.972 291L670 292V294V301V327H666H664H656H652H647H646H645H641H639H631H630H622H621H620H597H589H586H584H579H576H571H566H560H559H553H552H541H540H538H533H532H523H512H509H508L506 327.083L504 327.389L503 327.639L501 328.139L500 328.361L499 328.639L498 328.861L496 329.389L494 330.028L493 330.389L491 331.25L490 331.778L489 332.222L488 332.778L487 333.25L485 334.472L484 335.222L483 336L481 337.611L480 338.389L478.028 340.083L477.083 341.028L475.389 343L474.639 344L473.167 346L472.444 347L471.25 349L470.778 350L469.778 352L469.25 353L468.389 355L468.028 356L467.333 358L466.694 360L466.389 361L466.139 362L465.861 363L465.389 365L465.083 366.944L465.028 367.944L465 370H468.056H474H478H488H493H497H500H505H517H518H520H528H536H541H544H548H550H555H563H565H568H575H579H583H711V315V294V287V285L710.972 284L710.917 283L710.611 281L710.389 280L710.194 279L709.806 277L709.611 276L709.389 275L709 273L708.583 271L708 269L707.667 268L707.333 267L706.611 265L706.194 264L705.389 262L704.611 260L704.167 259L703.722 258L703.167 257L702.611 256L701.972 255L701.333 254L700 252L698.667 250L698 249L696.583 247L695.778 246L694.917 245L693.083 243L691.389 241.028L690.611 240.083L689.778 239.222L687.972 237.611L686 235.944L685 235.056L683 233.417L681 232L680 231.333L678 230L677 229.333L675 228.028L674 227.389L672 226.25L671 225.778L669 224.778L668 224.222L667 223.778L666 223.25L664 222.389L663 222.028L662 221.667L660 221L658 220.333L656 219.694L654 219.194L652 218.806L651 218.611L649 218.139L648 217.861L647 217.639L646 217.389L644 217.083L643 217.028L642 217H640H634H625H624H617.056H615L614 216V208V206L613.972 204L613.917 203L613.611 201L613.222 199L613.083 198L612.917 196L612.778 195L612.389 193L612.194 192L611.806 190L611.611 189L611.389 188L611.194 187L610.806 185L610.611 184L610.194 182L609.806 180L609.611 179L609.139 177L608.861 176L608.611 175L608 173L607.667 172L606.667 169L605.667 166L605.333 165L604.972 164L604.611 163L603.75 161L603.222 160L602.778 159L602.25 158L601.833 157L600.944 155L599.944 153L599.361 152L598.25 150L597.778 149L597.222 148L596.778 147L596.222 146L595.75 145L594.611 143L593.972 142L592.667 140L592 139L590 136L588.667 134L588 133L587.306 132L586.611 131L585.861 130L585.139 129L583.611 127L582.806 126L581.194 124L580.389 123L579.611 122L577.917 120L576.972 119L575 117L574 116L572 114.083L570 112.389L569 111.611L568 110.778L566 109.056L564 107.389L563 106.611L560 104.194L559 103.389L557 101.861L556 101.139L555 100.389L554 99.694L553 99L551 97.667L549 96.333L548 95.667L546 94.389L545 93.806L543 92.611L541 91.389L540 90.833L539 90.25L538 89.778L537 89.25L535 88.389L533 87.611L532 87.167L531 86.75L530 86.222L529 85.778L528 85.25L526 84.389L525 84.028L524 83.667L523 83.333L521 82.611L520 82.194L519 81.806L517 81.028L515 80.389L513 79.861L512 79.611L511 79.306L509 78.694L508 78.389L506 77.861L505 77.639L504 77.389L503 77.194L501 76.806L500 76.611L499 76.389L498 76.194L496 75.806L495 75.611L493 75.222L491 75L490 74.917L488 74.611L487 74.389L485 74.083L484 74.028L483 74H481H475H466H465H456H451H428H427H422H420H399ZM326 120H309H308H291H290H260H258H241H0V122.056L0.0279999 124L0.0830002 125L0.389 127L0.639 128L0.861 129L1.13901 130L1.38901 131L1.694 132L2.33299 134L3.08299 136L4.056 138L4.63901 139L5.806 141L6.38901 142L7.694 144L8.41701 145L10.083 147L12 148.917L14 150.611L15 151.361L17 152.833L18 153.556L19 154.139L20 154.75L21 155.222L22 155.75L24 156.611L25 156.972L26 157.333L28 158L30 158.667L31 159L33 159.583L35 159.917L37 160H38H40H51H52H84H92H103H108H115H121H368V149V145V139V134V129V127V122V118V112V110V106V104V101V99V96V88V80H363H361H360H358L356 80.083L354 80.417L352 81L350 81.667L348 82.389L346 83.25L345 83.778L344 84.25L342 85.472L340.028 87L339.083 87.806L337.389 89.389L336.611 90.222L335 92.028L333.417 94L332.028 96L331.417 97L330.417 99L329.611 101L328.833 103L328.444 104L328.167 105L327.861 106L327.389 108L327 110L326.611 112L326.389 113L326.083 115L326.028 116L326 117.944V120ZM29 222L29.083 223.5L29.222 224.056L29.389 225.056L29.611 226L29.917 228L29.972 229L30.083 231L30.472 233L30.833 234L31.611 236L32.389 238L33.25 240L33.778 241L34.222 242L34.778 243L35.25 244L36.472 246L37.25 247L39.028 249L40 250L42 251.917L44 253.611L45 254.361L47 255.833L48 256.556L49 257.139L50 257.75L51 258.222L52 258.75L54 259.611L55 259.972L56 260.333L58 261L60 261.667L61 262L63 262.583L65 262.917L67 263L69 263.083L71 263.389L72 263.611L74 263.917L75 263.972L77 264H79H88H110H364V248V236V228V225.056V222H345H337H313H308H304H278H271H270H29Z" fill="#FEFDFD"/>
</svg>
