<?xml version="1.0" standalone="yes"?>
<svg xmlns="http://www.w3.org/2000/svg" width="1024" height="1024">
<path style="fill:transparent; stroke:none;" d="M0 0L0 1024L474 1024L577 1024L587 1024L592 1024L594 1024L610 1024L614 1024L624 1024L656 1024L660 1024L666 1024L670 1024L675 1024L683 1024L687 1024L688 1024L695 1024L699 1024L707 1024L710 1024L714 1024L722 1024L724 1024L756 1024L766 1024L769 1024L777 1024L783 1024L784 1024L788 1024L793 1024L797 1024L801 1024L802 1024L804 1024L805 1024L809 1024L812 1024L816 1024L820 1024L824 1024L828 1024L833 1024L834 1024L839 1024L841 1024L849 1024L852 1024L854 1024L857 1024L858 1024L863 1024L868 1024L872 1024L873 1024L881 1024L885 1024L890 1024L891 1024L898 1024L900 1024L908 1024L913 1024L919 1024L927 1024L928 1024L932 1024L936 1024L937 1024L941 1024L942 1024L947 1024L951 1024L957 1024L962 1024L970 1024L978 1024L982 1024L989 1024L992 1024L996 1024L997 1024L999 1024L1002 1024L1005 1024L1010 1024L1011 1024L1013 1024L1015 1024L1017 1024L1018 1024L1024 1024L1024 550L1024 447L1024 437L1024 432L1024 430L1024 414L1024 410L1024 400L1024 368L1024 364L1024 358L1024 354L1024 349L1024 341L1024 337L1024 336L1024 329L1024 325L1024 317L1024 314L1024 310L1024 302L1024 300L1024 268L1024 258L1024 255L1024 247L1024 241L1024 240L1024 236L1024 231L1024 227L1024 223L1024 222L1024 220L1024 219L1024 215L1024 212L1024 208L1024 204L1024 200L1024 196L1024 191L1024 190L1024 185L1024 183L1024 175L1024 172L1024 170L1024 167L1024 166L1024 161L1024 156L1024 152L1024 151L1024 143L1024 139L1024 134L1024 133L1024 126L1024 124L1024 116L1024 111L1024 105L1024 97L1024 96L1024 92L1024 88L1024 87L1024 83L1024 82L1024 77L1024 73L1024 67L1024 62L1024 54L1024 46L1024 42L1024 35L1024 32L1024 28L1024 27L1024 25L1024 22L1024 19L1024 14L1024 13L1024 11L1024 9L1024 7L1024 6L1024 0L0 0z"/>
<path style="fill:#fefdfd; stroke:none;" d="M526 283L526 284.5L526 287L526 291L526 293L526 297L526 303L526 312L526 320L526 321L526 325L526 331L526 335L526 343L526 344L526 408L526 536L522 536L457 536L380 536L207 536L207.25 537.5L207.611 539.056L207.917 541L208.083 543L208.389 545L208.639 546L209.139 548L209.389 549L210.028 551L210.389 552L211.25 554L211.778 555L212.25 556L212.833 557L213.389 558L214.694 560L215.417 561L216.222 562L217.083 563L219 565L220 566L222 567.972L223 568.917L225 570.528L227 571.75L228 572.222L229 572.778L230 573.222L231 573.778L232 574.222L233 574.75L235 575.611L236 575.972L238 576.611L239 576.861L241 577.361L242 577.611L244 577.944L245 578.056L247 578.389L248 578.611L250 578.917L251 578.972L253 579L254 579L257 579L270 579L299 579L536 579L546 579L569 579L569 459L569 457L569 452L569 324L580 324L585 324L593 324L601 324L603 324L605 324.028L606 324.083L608 324.389L610 324.778L611 324.917L613 325.083L615 325.389L616 325.639L617 325.861L618 326.139L620 326.611L621 326.806L623 327.194L624 327.389L626 327.861L627 328.139L628 328.389L630 329L631 329.333L633 330L635 330.667L636 331.028L637 331.389L639 332.25L640 332.75L642 333.611L644 334.389L646 335.25L647 335.778L648 336.25L649 336.833L650 337.389L652 338.611L654 339.806L655 340.389L657 341.694L658 342.417L659 343.194L661 344.806L662 345.611L663 346.389L665 348.083L666 349.028L668 351L669 352L671 354L673 356L674 357L675 358L676.917 360L677.778 361L679.361 363L680.139 364L680.861 365L682.361 367L683.139 368L683.833 369L684.556 370L685.167 371L686.389 373L687.611 375L688.167 376L688.75 377L689.222 378L690.222 380L690.75 381L691.167 382L691.611 383L692.389 385L693.194 387L693.611 388L694.333 390L694.667 391L695.333 393L696 395L696.306 396L696.583 397L696.806 398L697.194 400L697.611 402L698 404L698.389 406L698.611 407L698.917 409L698.972 410L699 412L699 413L699 416L699 421L699 429L699 448L699 468L700.5 467.75L702.056 467.389L704 467.083L705 467.028L706 467L708 467L714 467L715 467L719 467L724 467L729 467L740 467L753 467L756 467L760 467L762 467L763 467L765 467.083L767 467.389L768 467.639L769 467.861L771 468.389L772 468.694L774 469.333L775 469.667L777 470.417L778 470.889L779 471.417L780 472.028L782 473.389L783 474.139L784.917 475.611L786.583 477L788 478.417L788.694 479.222L790.139 481.028L790.833 482L792.139 484L792.75 485L793.222 486L793.75 487L794.611 489L795.306 491L795.583 492L795.806 493L796.194 495L796.389 496L796.611 497L796.917 499L796.972 500L797 501L797 503L797 510L797 536L793 536L791 536L783 536L779 536L774 536L773 536L772 536L768 536L766 536L758 536L757 536L749 536L748 536L747 536L724 536L716 536L713 536L711 536L706 536L703 536L698 536L693 536L687 536L686 536L680 536L679 536L668 536L667 536L665 536L660 536L659 536L650 536L639 536L636 536L635 536L633 536.083L631 536.389L630 536.639L628 537.139L627 537.361L626 537.639L625 537.861L623 538.389L621 539.028L620 539.389L618 540.25L617 540.778L616 541.222L615 541.778L614 542.25L612 543.472L611 544.222L610 545L608 546.611L607 547.389L605.028 549.083L604.083 550.028L602.389 552L601.639 553L600.167 555L599.444 556L598.25 558L597.778 559L596.778 561L596.25 562L595.389 564L595.028 565L594.333 567L593.694 569L593.389 570L593.139 571L592.861 572L592.389 574L592.083 575.944L592.028 576.944L592 579L595.056 579L601 579L605 579L615 579L620 579L624 579L627 579L632 579L644 579L645 579L647 579L655 579L663 579L668 579L671 579L675 579L677 579L682 579L690 579L692 579L695 579L702 579L706 579L710 579L838 579L838 524L838 503L838 496L838 494L837.972 493L837.917 492L837.611 490L837.389 489L837.194 488L836.806 486L836.611 485L836.389 484L836 482L835.583 480L835 478L834.667 477L834.333 476L833.611 474L833.194 473L832.389 471L831.611 469L831.167 468L830.722 467L830.167 466L829.611 465L828.972 464L828.333 463L827 461L825.667 459L825 458L823.583 456L822.778 455L821.917 454L820.083 452L818.389 450.028L817.611 449.083L816.778 448.222L814.972 446.611L813 444.944L812 444.056L810 442.417L808 441L807 440.333L805 439L804 438.333L802 437.028L801 436.389L799 435.25L798 434.778L796 433.778L795 433.222L794 432.778L793 432.25L791 431.389L790 431.028L789 430.667L787 430L785 429.333L783 428.694L781 428.194L779 427.806L778 427.611L776 427.139L775 426.861L774 426.639L773 426.389L771 426.083L770 426.028L769 426L767 426L761 426L752 426L751 426L744.056 426L742 426L741 425L741 417L741 415L740.972 413L740.917 412L740.611 410L740.222 408L740.083 407L739.917 405L739.778 404L739.389 402L739.194 401L738.806 399L738.611 398L738.389 397L738.194 396L737.806 394L737.611 393L737.194 391L736.806 389L736.611 388L736.139 386L735.861 385L735.611 384L735 382L734.667 381L733.667 378L732.667 375L732.333 374L731.972 373L731.611 372L730.75 370L730.222 369L729.778 368L729.25 367L728.833 366L727.944 364L726.944 362L726.361 361L725.25 359L724.778 358L724.222 357L723.778 356L723.222 355L722.75 354L721.611 352L720.972 351L719.667 349L719 348L717 345L715.667 343L715 342L714.306 341L713.611 340L712.861 339L712.139 338L710.611 336L709.806 335L708.194 333L707.389 332L706.611 331L704.917 329L703.972 328L702 326L701 325L699 323.083L697 321.389L696 320.611L695 319.778L693 318.056L691 316.389L690 315.611L687 313.194L686 312.389L684 310.861L683 310.139L682 309.389L681 308.694L680 308L678 306.667L676 305.333L675 304.667L673 303.389L672 302.806L670 301.611L668 300.389L667 299.833L666 299.25L665 298.778L664 298.25L662 297.389L660 296.611L659 296.167L658 295.75L657 295.222L656 294.778L655 294.25L653 293.389L652 293.028L651 292.667L650 292.333L648 291.611L647 291.194L646 290.806L644 290.028L642 289.389L640 288.861L639 288.611L638 288.306L636 287.694L635 287.389L633 286.861L632 286.639L631 286.389L630 286.194L628 285.806L627 285.611L626 285.389L625 285.194L623 284.806L622 284.611L620 284.222L618 284L617 283.917L615 283.611L614 283.389L612 283.083L611 283.028L610 283L608 283L602 283L593 283L592 283L583 283L578 283L555 283L554 283L549 283L547 283L526 283M453 329L436 329L435 329L418 329L417 329L387 329L385 329L368 329L127 329L127 331.056L127.028 333L127.083 334L127.389 336L127.639 337L127.861 338L128.139 339L128.389 340L128.694 341L129.333 343L130.083 345L131.056 347L131.639 348L132.806 350L133.389 351L134.694 353L135.417 354L137.083 356L139 357.917L141 359.611L142 360.361L144 361.833L145 362.556L146 363.139L147 363.75L148 364.222L149 364.75L151 365.611L152 365.972L153 366.333L155 367L157 367.667L158 368L160 368.583L162 368.917L164 369L165 369L167 369L178 369L179 369L211 369L219 369L230 369L235 369L242 369L248 369L495 369L495 358L495 354L495 348L495 343L495 338L495 336L495 331L495 327L495 321L495 319L495 315L495 313L495 310L495 308L495 305L495 297L495 289L490 289L488 289L487 289L485 289L483 289.083L481 289.417L479 290L477 290.667L475 291.389L473 292.25L472 292.778L471 293.25L469 294.472L467.028 296L466.083 296.806L464.389 298.389L463.611 299.222L462 301.028L460.417 303L459.028 305L458.417 306L457.417 308L456.611 310L455.833 312L455.444 313L455.167 314L454.861 315L454.389 317L454 319L453.611 321L453.389 322L453.083 324L453.028 325L453 326.944L453 329M156 431L156.083 432.5L156.222 433.056L156.389 434.056L156.611 435L156.917 437L156.972 438L157.083 440L157.472 442L157.833 443L158.611 445L159.389 447L160.25 449L160.778 450L161.222 451L161.778 452L162.25 453L163.472 455L164.25 456L166.028 458L167 459L169 460.917L171 462.611L172 463.361L174 464.833L175 465.556L176 466.139L177 466.75L178 467.222L179 467.75L181 468.611L182 468.972L183 469.333L185 470L187 470.667L188 471L190 471.583L192 471.917L194 472L196 472.083L198 472.389L199 472.611L201 472.917L202 472.972L204 473L206 473L215 473L237 473L491 473L491 457L491 445L491 437L491 434.056L491 431L472 431L464 431L440 431L435 431L431 431L405 431L398 431L397 431L156 431M180 651L180 726L197 726L197 703L198 702L202 702L204 702L205 702L207 702.111L209 702.722L210.917 704.111L212.528 706L213.75 708L214.222 709L215.25 711L215.833 712L216.389 713L217.611 715L218.167 716L218.75 717L219.778 719L220.222 720L221.222 722L221.75 722.944L222.167 723.944L222.5 724.5L223 726L242 726L241.889 724.5L241.361 722.944L240.889 722L240.306 721L239.667 720L238.389 718L237.25 716L236.778 715L236.222 714L235.75 713L234.611 711L233.389 709L232.194 707L231.611 706L230.389 704L229.278 702.056L228.833 701.056L228.5 700.5L228 699L229.5 698.306L230.056 697.917L231.056 697.278L232 696.583L233.917 694.917L234.778 693.972L236.306 692L237.583 690L238.583 688L238.972 687L239.611 685L239.861 684L240.361 682L240.611 681L240.917 679L240.972 678L241 676L240.889 674L240.389 672L239.611 670L239.278 669L239.028 668L238.5 666L238.083 665L237.583 664L236.306 662L235.583 661L234.778 660L232.972 658.083L231 656.472L229 655.25L228 654.778L226 653.833L225 653.389L223 652.694L222 652.417L221 652.222L220 652.083L218 651.972L217 651.917L216 651.778L214 651.389L213 651.222L212 651.083L210 651L209 651L207 651L199 651L180 651M258 651L258 726L275 726L275 651L258 651M287 651L287.25 652.5L287.694 654.056L288.389 656L288.806 657L289.611 659L290.389 661L290.806 662L291.611 664L292.333 666L293.028 668L293.389 669L293.833 670L294.25 671L294.75 672L295.611 674L295.972 675L296.333 676L296.667 677L297.333 679L297.667 680L298.028 681L298.389 682L298.806 683L299.611 685L300.389 687L301.194 689L301.611 690L302.333 692L302.667 693L303.028 694L303.389 695L304.25 697L304.75 698L305.611 700L306.389 702L307.194 704L307.611 705L307.972 706L308.333 707L308.667 708L309.333 710L309.667 711L310.028 712L310.389 713L311.194 715L311.611 716L312.333 718L312.667 719L313.333 721L314 722.944L314.333 723.944L314.556 724.5L315 726L334 726L335 725L335.083 723.5L335.472 721.944L336.194 720L336.611 719L337.333 717L337.667 716L339 712L339.667 710L340.389 708L341.194 706L341.611 705L342.333 703L342.667 702L343.028 701L343.389 700L343.806 699L344.611 697L345.389 695L346.194 693L346.611 692L346.972 691L347.333 690L347.667 689L348.333 687L348.667 686L349.028 685L349.389 684L350.194 682L350.611 681L351.333 679L351.667 678L352.389 676L352.806 675L353.611 673L353.972 672L354.333 671L354.667 670L355.333 668L355.667 667L356.389 665L357.194 663L357.611 662L357.972 661L358.333 660L358.667 659L359.333 657L359.667 656L360.306 654.056L360.583 653.056L360.75 652.5L361 651L344 651L343.028 652.5L342.861 653.056L342.417 654.056L342.167 655L341.556 657L340.833 659L340.444 660L340.167 661L339.556 663L338.806 665L338.389 666L337.667 668L337.333 669L336.333 672L334 679L333.333 681L333 682L332.333 684L331.972 685L331.611 686L330.833 688L330.444 689L330.167 690L329.861 691L329.306 693L329 694L328.333 696L328 697L327.694 698L327.389 699L327.139 700L326.611 701.944L326 704L324 704L323.556 702.5L323.333 701.944L323 700.944L322.667 700L322.333 699L321.333 696L318.667 688L316.333 681L315.667 679L315.333 678L314.972 677L314.611 676L314.194 675L313.389 673L312.667 671L312 669L311 666L310.333 664L309.972 663L309.194 661L308.833 660L308.444 659L308.167 658L307.556 656L307.167 655L306.833 654.056L306.278 652.5L306 651L287 651M374 651L374 726L432 726L432 712L392 712L392 695L426 695L426 681L392 681L392 665L430 665L430 651L428.5 651L374 651M449 651L449 726L502 726L502 719L502 711L467 711L467 651L449 651M541 651L541 665L563 665L563 726L581 726L581 721L581 665L604 665L604 651L600.944 651L592 651L587 651L581 651L580 651L579 651L574 651L573 651L541 651M617 651L617 652.5L617 726L625 726L635 726L635 651L627 651L626 651L617 651M653 651L653 726L669 726L669 681L670.389 681.778L670.75 682.306L671.444 683.111L671.972 684.028L673.056 686L674.167 688L674.722 689L675.611 691L676.417 693L677.389 695L678.472 697L679 698L680 700L680.472 701L680.944 702L681.361 703L681.806 704L682.611 706L683.389 708L683.833 709L684.278 710L684.833 711L685.944 713L686.917 715L687.583 716.944L687.75 717.5L688 719L692 719L696 719L702 719L702.444 717.5L702.667 716.944L703.389 715L703.806 714L704.639 712L705.056 711L706.056 709L706.639 708L707.167 707L707.75 706L708.778 704L709.222 703L710.222 701L710.75 700L711.167 699L712.056 697L712.528 696L713.472 694L714.389 692L715.389 690L715.944 689L716.944 687L717.833 685L718.278 684.028L719.417 682.306L719.778 681.778L721 681L721 683.056L721 688L721 690L721 726L727 726L731 726L736 726L736 651L730 651L723 651L718 651L717.167 652.5L716.944 653.056L716.444 654.056L715.528 656L715.056 657L714.167 659L713.75 660L712.778 662L712.222 663L711.778 664L711.222 665L710.778 666L709.778 668L709.222 669L708.778 670L708.25 671L707.833 672L707.361 673L706.944 674L706 676L705 678L704 680L703.528 681L703.056 682L702.167 684L701.75 685L700.778 687L700.222 688L699.222 690L698.778 691L698.222 692L697.778 693L697.25 693.944L696.833 694.944L696.5 695.5L696 697L694.056 694.944L693.25 693.944L692.083 692L691.167 690L690.75 689L689.778 687L689.25 686L688.389 684L687.611 682L687.167 681L686.75 680L686.222 679L685.222 677L684.778 676L684.222 675L683.25 673L682.833 672L681.944 670L681.472 669L680.5 667L680 666L678.944 664L677.889 662L677.417 661L676.611 659L676.194 658L675.806 657L674.944 655L674.472 654.056L674 653.056L673.667 652.5L673 651L665 651L664 651L663 651L659 651L653 651M755 651L755 657L755 665L755 666L755 679L755 726L760 726L769 726L771 726L775 726L777 726L781 726L782 726L790 726L798 726L799 726L800 726L802 726L810 726L810 712L807.944 712L805 712L799 712L783 712L779 712L778 712L776.056 712L773 712L773 695L775.056 695L778 695L786 695L794 695L799 695L800 695L802 695L806 695L806 681L803.944 681L799 681L798 681L794 681L789 681L773 681L773 665L789 665L793 665L809 665L809 651L799 651L792 651L784 651L782 651L779 651L774 651L772 651L768 651L765 651L761 651L755 651z"/>
<path style="fill:#ed354f; stroke:none;" d="M198 666L197 667L197 688L198 689L205 689L207 689L208 689L210 689L211 688.972L212 688.917L214 688.583L216 687.972L218 687.083L218.972 686.5L220.694 684.917L221.889 683L222.583 681L222.917 679L223 677L222.972 675L222.889 674L222.694 673L222.361 672L221.889 671L220.583 669.111L218.917 667.694L217.972 667.25L216 666.639L215 666.389L213 666.083L212 666.028L210 666L209 666L206 666L198 666z"/>
</svg>
